<svg width="40" height="27" fill="none" xmlns="http://www.w3.org/2000/svg"><path fill-rule="evenodd" clip-rule="evenodd" d="M1 0H0v9.47h2V2h7.47V0H1zm38.793 1V0h-9.47v2h7.47v7.47h2V1zM0 26.11h9.47v-2H2v-7.471H0v9.47zm39.793-1v1h-9.47v-2h7.47v-7.471h2v8.47z" fill="#F2C94C"/><path fill-rule="evenodd" clip-rule="evenodd" d="M1 0H0v9.47h2V2h7.47V0H1zm38.793 1V0h-9.47v2h7.47v7.47h2V1zM0 26.11h9.47v-2H2v-7.471H0v9.47zm39.793-1v1h-9.47v-2h7.47v-7.471h2v8.47z" fill="url(#paint0_linear)"/><defs><linearGradient id="paint0_linear" x1="0" y1="0" x2="27.655" y2="35.739" gradientUnits="userSpaceOnUse"><stop stop-color="#fff" stop-opacity=".5"/><stop offset="1" stop-color="#fff" stop-opacity=".1"/></linearGradient></defs></svg>