<svg width="17" height="18" fill="none" xmlns="http://www.w3.org/2000/svg"><path d="M8.708.91a8.21 8.21 0 014.73 1.49l-1.272 1.28a6.46 6.46 0 00-3.458-.997 6.463 6.463 0 00-3.766 1.204l-1.26-1.268A8.213 8.213 0 018.708.909z" fill="#F2C94C"/><path d="M8.708.91a8.21 8.21 0 014.73 1.49l-1.272 1.28a6.46 6.46 0 00-3.458-.997 6.463 6.463 0 00-3.766 1.204l-1.26-1.268A8.213 8.213 0 018.708.909z" fill="url(#paint0_linear)"/><path d="M2.124 4.186A8.33 8.33 0 00.426 9.243c0 1.77.548 3.41 1.482 4.759l1.271-1.28a6.56 6.56 0 01-.991-3.479c0-1.411.443-2.719 1.197-3.789l-1.26-1.268z" fill="#F2C94C"/><path d="M2.124 4.186A8.33 8.33 0 00.426 9.243c0 1.77.548 3.41 1.482 4.759l1.271-1.28a6.56 6.56 0 01-.991-3.479c0-1.411.443-2.719 1.197-3.789l-1.26-1.268z" fill="url(#paint1_linear)"/><path d="M12.474 14.6a6.463 6.463 0 01-3.766 1.204 6.468 6.468 0 01-4.059-1.426l-1.252 1.26a8.218 8.218 0 005.311 1.94c1.89 0 3.632-.638 5.026-1.71l-1.26-1.268z" fill="#F2C94C"/><path d="M12.474 14.6a6.463 6.463 0 01-3.766 1.204 6.468 6.468 0 01-4.059-1.426l-1.252 1.26a8.218 8.218 0 005.311 1.94c1.89 0 3.632-.638 5.026-1.71l-1.26-1.268z" fill="url(#paint2_linear)"/><path d="M15.292 14.3a8.33 8.33 0 001.699-5.057A8.332 8.332 0 0015.063 3.9l-1.252 1.26a6.558 6.558 0 011.417 4.084 6.558 6.558 0 01-1.197 3.79l1.26 1.268z" fill="#F2C94C"/><path d="M15.292 14.3a8.33 8.33 0 001.699-5.057A8.332 8.332 0 0015.063 3.9l-1.252 1.26a6.558 6.558 0 011.417 4.084 6.558 6.558 0 01-1.197 3.79l1.26 1.268z" fill="url(#paint3_linear)"/><path d="M10.91 9.243a2.21 2.21 0 01-2.202 2.217 2.21 2.21 0 01-2.203-2.217 2.21 2.21 0 012.203-2.216 2.21 2.21 0 012.203 2.216z" fill="#F2C94C"/><path d="M10.91 9.243a2.21 2.21 0 01-2.202 2.217 2.21 2.21 0 01-2.203-2.217 2.21 2.21 0 012.203-2.216 2.21 2.21 0 012.203 2.216z" fill="url(#paint4_linear)"/><defs><linearGradient id="paint0_linear" x1=".426" y1=".91" x2="18.4" y2="16.056" gradientUnits="userSpaceOnUse"><stop stop-color="#fff" stop-opacity=".5"/><stop offset="1" stop-color="#fff" stop-opacity=".1"/></linearGradient><linearGradient id="paint1_linear" x1=".426" y1=".91" x2="18.4" y2="16.056" gradientUnits="userSpaceOnUse"><stop stop-color="#fff" stop-opacity=".5"/><stop offset="1" stop-color="#fff" stop-opacity=".1"/></linearGradient><linearGradient id="paint2_linear" x1=".426" y1=".91" x2="18.4" y2="16.056" gradientUnits="userSpaceOnUse"><stop stop-color="#fff" stop-opacity=".5"/><stop offset="1" stop-color="#fff" stop-opacity=".1"/></linearGradient><linearGradient id="paint3_linear" x1=".426" y1=".91" x2="18.4" y2="16.056" gradientUnits="userSpaceOnUse"><stop stop-color="#fff" stop-opacity=".5"/><stop offset="1" stop-color="#fff" stop-opacity=".1"/></linearGradient><linearGradient id="paint4_linear" x1=".426" y1=".91" x2="18.4" y2="16.056" gradientUnits="userSpaceOnUse"><stop stop-color="#fff" stop-opacity=".5"/><stop offset="1" stop-color="#fff" stop-opacity=".1"/></linearGradient></defs></svg>